<mxfile host="Electron" modified="2024-03-04T15:09:28.837Z" agent="Mozilla/5.0 (Windows NT 10.0; Win64; x64) AppleWebKit/537.36 (KHTML, like Gecko) draw.io/23.1.5 Chrome/120.0.6099.109 Electron/28.1.0 Safari/537.36" etag="DcFWzcQYR_IM5guovN0r" version="23.1.5" type="device">
  <diagram name="Page-1" id="PoCq6ONa07NzLXSCt53S">
    <mxGraphModel dx="1480" dy="877" grid="1" gridSize="10" guides="1" tooltips="1" connect="1" arrows="1" fold="1" page="1" pageScale="1" pageWidth="827" pageHeight="1169" math="0" shadow="0">
      <root>
        <mxCell id="0" />
        <mxCell id="1" parent="0" />
        <mxCell id="6cQtI8f6F2JXkm5LAepP-8" value="utilisateur&lt;div&gt;&lt;br/&gt;&lt;/div&gt;" style="shape=umlActor;verticalLabelPosition=bottom;verticalAlign=top;html=1;outlineConnect=0;" parent="1" vertex="1">
          <mxGeometry x="70" y="130" width="30" height="60" as="geometry" />
        </mxCell>
        <mxCell id="6cQtI8f6F2JXkm5LAepP-16" value="" style="whiteSpace=wrap;html=1;aspect=fixed;" parent="1" vertex="1">
          <mxGeometry x="140" y="100" width="840" height="840" as="geometry" />
        </mxCell>
        <mxCell id="6cQtI8f6F2JXkm5LAepP-28" value="" style="edgeStyle=orthogonalEdgeStyle;rounded=0;orthogonalLoop=1;jettySize=auto;html=1;dashed=1;endArrow=classic;endFill=1;" parent="1" source="6cQtI8f6F2JXkm5LAepP-17" target="6cQtI8f6F2JXkm5LAepP-20" edge="1">
          <mxGeometry relative="1" as="geometry" />
        </mxCell>
        <mxCell id="6cQtI8f6F2JXkm5LAepP-17" value="publier des appartements" style="ellipse;whiteSpace=wrap;html=1;" parent="1" vertex="1">
          <mxGeometry x="290" y="250" width="120" height="80" as="geometry" />
        </mxCell>
        <mxCell id="6cQtI8f6F2JXkm5LAepP-20" value="s&#39;identifier" style="ellipse;whiteSpace=wrap;html=1;" parent="1" vertex="1">
          <mxGeometry x="420" y="120" width="80" height="80" as="geometry" />
        </mxCell>
        <mxCell id="6cQtI8f6F2JXkm5LAepP-23" value="include" style="text;html=1;align=center;verticalAlign=middle;whiteSpace=wrap;rounded=0;dashed=1;" parent="1" vertex="1">
          <mxGeometry x="440" y="260" width="60" height="30" as="geometry" />
        </mxCell>
        <mxCell id="i5TnooklGl4rGmym4I-m-3" value="voir les appartements" style="ellipse;whiteSpace=wrap;html=1;" vertex="1" parent="1">
          <mxGeometry x="240" y="110" width="120" height="80" as="geometry" />
        </mxCell>
        <mxCell id="i5TnooklGl4rGmym4I-m-8" value="" style="endArrow=none;html=1;rounded=0;" edge="1" parent="1">
          <mxGeometry width="50" height="50" relative="1" as="geometry">
            <mxPoint x="120" y="160" as="sourcePoint" />
            <mxPoint x="240" y="160" as="targetPoint" />
          </mxGeometry>
        </mxCell>
        <mxCell id="i5TnooklGl4rGmym4I-m-11" value="" style="endArrow=none;html=1;rounded=0;" edge="1" parent="1">
          <mxGeometry width="50" height="50" relative="1" as="geometry">
            <mxPoint x="120" y="160" as="sourcePoint" />
            <mxPoint x="290" y="290" as="targetPoint" />
          </mxGeometry>
        </mxCell>
        <mxCell id="i5TnooklGl4rGmym4I-m-30" value="" style="edgeStyle=orthogonalEdgeStyle;rounded=0;orthogonalLoop=1;jettySize=auto;html=1;entryX=0.91;entryY=0.803;entryDx=0;entryDy=0;entryPerimeter=0;dashed=1;" edge="1" parent="1" source="i5TnooklGl4rGmym4I-m-12" target="6cQtI8f6F2JXkm5LAepP-17">
          <mxGeometry relative="1" as="geometry" />
        </mxCell>
        <mxCell id="i5TnooklGl4rGmym4I-m-12" value="ecrire une description complete de l&#39;appartement" style="ellipse;whiteSpace=wrap;html=1;" vertex="1" parent="1">
          <mxGeometry x="580" y="190" width="120" height="80" as="geometry" />
        </mxCell>
        <mxCell id="i5TnooklGl4rGmym4I-m-22" value="" style="edgeStyle=orthogonalEdgeStyle;rounded=0;orthogonalLoop=1;jettySize=auto;html=1;entryX=0.5;entryY=1;entryDx=0;entryDy=0;dashed=1;" edge="1" parent="1" source="i5TnooklGl4rGmym4I-m-14" target="6cQtI8f6F2JXkm5LAepP-17">
          <mxGeometry relative="1" as="geometry" />
        </mxCell>
        <mxCell id="i5TnooklGl4rGmym4I-m-14" value="supprimer les appartemen" style="ellipse;whiteSpace=wrap;html=1;" vertex="1" parent="1">
          <mxGeometry x="270" y="410" width="120" height="80" as="geometry" />
        </mxCell>
        <mxCell id="i5TnooklGl4rGmym4I-m-24" value="" style="edgeStyle=orthogonalEdgeStyle;rounded=0;orthogonalLoop=1;jettySize=auto;html=1;entryX=1;entryY=1;entryDx=0;entryDy=0;dashed=1;" edge="1" parent="1" source="i5TnooklGl4rGmym4I-m-23" target="6cQtI8f6F2JXkm5LAepP-17">
          <mxGeometry relative="1" as="geometry">
            <Array as="points">
              <mxPoint x="396" y="398" />
            </Array>
          </mxGeometry>
        </mxCell>
        <mxCell id="i5TnooklGl4rGmym4I-m-23" value="modifier la description de l&#39;appartement" style="ellipse;whiteSpace=wrap;html=1;" vertex="1" parent="1">
          <mxGeometry x="600" y="285" width="120" height="80" as="geometry" />
        </mxCell>
        <mxCell id="i5TnooklGl4rGmym4I-m-25" value="include" style="text;html=1;align=center;verticalAlign=middle;whiteSpace=wrap;rounded=0;" vertex="1" parent="1">
          <mxGeometry x="450" y="310" width="60" height="30" as="geometry" />
        </mxCell>
        <mxCell id="i5TnooklGl4rGmym4I-m-26" value="extends" style="text;html=1;align=center;verticalAlign=middle;whiteSpace=wrap;rounded=0;" vertex="1" parent="1">
          <mxGeometry x="510" y="370" width="60" height="30" as="geometry" />
        </mxCell>
        <mxCell id="i5TnooklGl4rGmym4I-m-27" value="extends" style="text;html=1;align=center;verticalAlign=middle;whiteSpace=wrap;rounded=0;" vertex="1" parent="1">
          <mxGeometry x="294" y="340" width="60" height="30" as="geometry" />
        </mxCell>
        <mxCell id="i5TnooklGl4rGmym4I-m-34" value="" style="edgeStyle=orthogonalEdgeStyle;rounded=0;orthogonalLoop=1;jettySize=auto;html=1;dashed=1;" edge="1" parent="1" source="i5TnooklGl4rGmym4I-m-29" target="i5TnooklGl4rGmym4I-m-33">
          <mxGeometry relative="1" as="geometry" />
        </mxCell>
        <mxCell id="i5TnooklGl4rGmym4I-m-29" value="voir le numéro de proprietére&amp;nbsp;" style="ellipse;whiteSpace=wrap;html=1;" vertex="1" parent="1">
          <mxGeometry x="270" y="560" width="120" height="80" as="geometry" />
        </mxCell>
        <mxCell id="i5TnooklGl4rGmym4I-m-32" value="" style="endArrow=none;html=1;rounded=0;" edge="1" parent="1">
          <mxGeometry width="50" height="50" relative="1" as="geometry">
            <mxPoint x="290" y="570" as="sourcePoint" />
            <mxPoint x="120" y="160" as="targetPoint" />
          </mxGeometry>
        </mxCell>
        <mxCell id="i5TnooklGl4rGmym4I-m-33" value="s&#39;identifier" style="ellipse;whiteSpace=wrap;html=1;" vertex="1" parent="1">
          <mxGeometry x="490" y="560" width="120" height="80" as="geometry" />
        </mxCell>
        <mxCell id="i5TnooklGl4rGmym4I-m-36" value="Actor" style="shape=umlActor;verticalLabelPosition=bottom;verticalAlign=top;html=1;outlineConnect=0;" vertex="1" parent="1">
          <mxGeometry x="80" y="750" width="30" height="60" as="geometry" />
        </mxCell>
        <mxCell id="i5TnooklGl4rGmym4I-m-37" value="envoyer des messages" style="ellipse;whiteSpace=wrap;html=1;" vertex="1" parent="1">
          <mxGeometry x="250" y="740" width="120" height="80" as="geometry" />
        </mxCell>
        <mxCell id="i5TnooklGl4rGmym4I-m-38" value="" style="endArrow=none;html=1;rounded=0;" edge="1" parent="1">
          <mxGeometry width="50" height="50" relative="1" as="geometry">
            <mxPoint x="120" y="800" as="sourcePoint" />
            <mxPoint x="250" y="770" as="targetPoint" />
            <Array as="points" />
          </mxGeometry>
        </mxCell>
        <mxCell id="i5TnooklGl4rGmym4I-m-39" value="" style="endArrow=none;html=1;rounded=0;" edge="1" parent="1">
          <mxGeometry width="50" height="50" relative="1" as="geometry">
            <mxPoint x="270" y="750" as="sourcePoint" />
            <mxPoint x="120" y="160" as="targetPoint" />
            <Array as="points">
              <mxPoint x="270" y="720" />
            </Array>
          </mxGeometry>
        </mxCell>
      </root>
    </mxGraphModel>
  </diagram>
</mxfile>
